<svg viewBox="0 0 24 24" xmlns="http://www.w3.org/2000/svg">
<path d="M21.1875 11.1562H2.8125C2.70937 11.1562 2.625 11.2406 2.625 11.3438V12.6562C2.625 12.7594 2.70937 12.8438 2.8125 12.8438H21.1875C21.2906 12.8438 21.375 12.7594 21.375 12.6562V11.3438C21.375 11.2406 21.2906 11.1562 21.1875 11.1562Z"/>
<path d="M12.8437 21.1875L12.8437 2.8125C12.8437 2.70937 12.7594 2.625 12.6562 2.625L11.3438 2.625C11.2406 2.625 11.1562 2.70937 11.1562 2.8125L11.1562 21.1875C11.1562 21.2906 11.2406 21.375 11.3437 21.375L12.6562 21.375C12.7594 21.375 12.8437 21.2906 12.8437 21.1875Z" />
</svg>
