<svg viewBox="0 0 24 24" xmlns="http://www.w3.org/2000/svg">
<path d="M21.676 14.6634L20.1409 13.3509C20.2135 12.9055 20.251 12.4509 20.251 11.9962C20.251 11.5415 20.2135 11.0868 20.1409 10.6415L21.676 9.32898C21.7918 9.22985 21.8747 9.09783 21.9136 8.95046C21.9526 8.80309 21.9457 8.64736 21.894 8.50398L21.8729 8.44304C21.4503 7.26185 20.8174 6.16687 20.0049 5.21101L19.9627 5.16179C19.8642 5.0459 19.7328 4.96259 19.586 4.92284C19.4391 4.88309 19.2837 4.88878 19.1401 4.93914L17.2346 5.61648C16.5315 5.03992 15.7463 4.58523 14.8979 4.26648L14.5299 2.27429C14.5022 2.12439 14.4295 1.98649 14.3215 1.8789C14.2134 1.77131 14.0753 1.69913 13.9252 1.67195L13.862 1.66023C12.6409 1.43992 11.3565 1.43992 10.1354 1.66023L10.0721 1.67195C9.92212 1.69913 9.78393 1.77131 9.67592 1.8789C9.56791 1.98649 9.4952 2.12439 9.46744 2.27429L9.09712 4.27585C8.25546 4.59467 7.47166 5.04912 6.77681 5.62117L4.85728 4.93914C4.71376 4.88838 4.5582 4.88249 4.41125 4.92226C4.26431 4.96203 4.13295 5.04558 4.03462 5.16179L3.99244 5.21101C3.1809 6.16755 2.54816 7.26235 2.12447 8.44304L2.10337 8.50398C1.99791 8.79695 2.08462 9.12507 2.32134 9.32898L3.87525 10.6555C3.80259 11.0962 3.76744 11.5462 3.76744 11.9938C3.76744 12.4438 3.80259 12.8938 3.87525 13.3321L2.32134 14.6587C2.20555 14.7578 2.12268 14.8898 2.08374 15.0372C2.04481 15.1846 2.05165 15.3403 2.10337 15.4837L2.12447 15.5446C2.54869 16.7259 3.17681 17.8157 3.99244 18.7766L4.03462 18.8259C4.13319 18.9417 4.26455 19.0251 4.41141 19.0648C4.55827 19.1046 4.71372 19.0989 4.85728 19.0485L6.77681 18.3665C7.47525 18.9407 8.25572 19.3954 9.09712 19.7118L9.46744 21.7134C9.4952 21.8633 9.56791 22.0012 9.67592 22.1088C9.78393 22.2163 9.92212 22.2885 10.0721 22.3157L10.1354 22.3274C11.3677 22.5489 12.6297 22.5489 13.862 22.3274L13.9252 22.3157C14.0753 22.2885 14.2134 22.2163 14.3215 22.1088C14.4295 22.0012 14.5022 21.8633 14.5299 21.7134L14.8979 19.7212C15.746 19.4033 16.5356 18.9471 17.2346 18.3712L19.1401 19.0485C19.2836 19.0993 19.4392 19.1052 19.5861 19.0654C19.7331 19.0256 19.8644 18.9421 19.9627 18.8259L20.0049 18.7766C20.8206 17.8134 21.4487 16.7259 21.8729 15.5446L21.894 15.4837C21.9995 15.1954 21.9127 14.8673 21.676 14.6634ZM18.4768 10.918C18.5354 11.2719 18.5659 11.6352 18.5659 11.9985C18.5659 12.3618 18.5354 12.7251 18.4768 13.079L18.3221 14.0188L20.0729 15.5165C19.8075 16.1279 19.4725 16.7068 19.0745 17.2415L16.8995 16.4704L16.1635 17.0751C15.6034 17.5344 14.9799 17.8954 14.3049 18.1485L13.412 18.4837L12.9924 20.7571C12.3305 20.8321 11.6622 20.8321 11.0002 20.7571L10.5807 18.479L9.69478 18.1391C9.02681 17.886 8.40572 17.5251 7.85025 17.068L7.11431 16.461L4.92525 17.2391C4.52681 16.7024 4.194 16.1235 3.92681 15.5141L5.69634 14.0024L5.544 13.0649C5.48775 12.7157 5.45728 12.3548 5.45728 11.9985C5.45728 11.6399 5.48541 11.2813 5.544 10.9321L5.69634 9.9946L3.92681 8.48289C4.19166 7.87117 4.52681 7.2946 4.92525 6.75789L7.11431 7.53601L7.85025 6.92898C8.40572 6.47195 9.02681 6.11101 9.69478 5.85789L10.5831 5.52273L11.0026 3.2446C11.6612 3.1696 12.3338 3.1696 12.9948 3.2446L13.4143 5.51804L14.3073 5.8532C14.9799 6.10632 15.6057 6.46726 16.1659 6.92664L16.9018 7.53132L19.0768 6.76023C19.4753 7.29695 19.8081 7.87585 20.0752 8.48523L18.3245 9.98289L18.4768 10.918ZM12.001 7.63914C9.72291 7.63914 7.87603 9.48601 7.87603 11.7641C7.87603 14.0423 9.72291 15.8891 12.001 15.8891C14.2792 15.8891 16.126 14.0423 16.126 11.7641C16.126 9.48601 14.2792 7.63914 12.001 7.63914ZM13.8573 13.6204C13.6138 13.8646 13.3245 14.0582 13.0059 14.1901C12.6873 14.322 12.3458 14.3897 12.001 14.3891C11.3002 14.3891 10.6417 14.1149 10.1448 13.6204C9.90062 13.3769 9.707 13.0876 9.57507 12.769C9.44314 12.4504 9.37549 12.1089 9.37603 11.7641C9.37603 11.0634 9.65025 10.4048 10.1448 9.90789C10.6417 9.41101 11.3002 9.13914 12.001 9.13914C12.7018 9.13914 13.3604 9.41101 13.8573 9.90789C14.1014 10.1514 14.2951 10.4407 14.427 10.7593C14.5589 11.0778 14.6266 11.4193 14.626 11.7641C14.626 12.4649 14.3518 13.1235 13.8573 13.6204Z"/>
</svg>
