<svg viewBox="0 0 24 24" xmlns="http://www.w3.org/2000/svg">
<path d="M11.324 18.523L20.1881 9.65664C20.2279 9.61679 20.2467 9.56289 20.242 9.50898L19.6443 2.44492C19.6279 2.26211 19.4849 2.11914 19.3021 2.10273L12.2381 1.50742C12.1842 1.50273 12.1279 1.52148 12.0904 1.56133L3.22634 10.4254C3.19145 10.4606 3.17188 10.5082 3.17188 10.5578C3.17188 10.6074 3.19145 10.655 3.22634 10.6902L11.0592 18.523C11.1318 18.598 11.2513 18.598 11.324 18.523ZM12.7912 3.24883L18.0553 3.69414L18.5006 8.9582L11.1904 16.266L5.48103 10.559L12.7912 3.24883ZM14.2012 7.61359C14.3057 7.71805 14.4297 7.80092 14.5662 7.85744C14.7027 7.91397 14.849 7.94306 14.9967 7.94305C15.1445 7.94304 15.2908 7.91393 15.4273 7.85738C15.5638 7.80083 15.6878 7.71795 15.7922 7.61347C15.8967 7.509 15.9796 7.38497 16.0361 7.24847C16.0926 7.11196 16.1217 6.96567 16.1217 6.81792C16.1217 6.67018 16.0926 6.52388 16.036 6.38739C15.9795 6.2509 15.8966 6.12688 15.7921 6.02242C15.6876 5.91796 15.5636 5.8351 15.4271 5.77857C15.2906 5.72204 15.1443 5.69295 14.9966 5.69296C14.8488 5.69297 14.7025 5.72208 14.566 5.77863C14.4296 5.83518 14.3055 5.91806 14.2011 6.02254C14.0966 6.12701 14.0137 6.25104 13.9572 6.38755C13.9007 6.52405 13.8716 6.67035 13.8716 6.81809C13.8716 6.96583 13.9007 7.11213 13.9573 7.24862C14.0138 7.38511 14.0967 7.50913 14.2012 7.61359ZM20.8513 12.652L19.9232 11.7262C19.888 11.6913 19.8404 11.6717 19.7908 11.6717C19.7412 11.6717 19.6936 11.6913 19.6584 11.7262L11.174 20.1941L5.60525 14.6395C5.57001 14.6046 5.52242 14.585 5.47283 14.585C5.42324 14.585 5.37565 14.6046 5.34041 14.6395L4.41228 15.5652C4.37739 15.6005 4.35781 15.6481 4.35781 15.6977C4.35781 15.7472 4.37739 15.7948 4.41228 15.8301L10.1123 21.5207L11.0404 22.4465C11.1131 22.5191 11.2326 22.5191 11.3053 22.4465L20.8513 12.9168C20.924 12.8441 20.924 12.7246 20.8513 12.652Z"/>
</svg>
